<?xml version="1.0" encoding="UTF-8"?>
<svg xmlns="http://www.w3.org/2000/svg" xmlns:xlink="http://www.w3.org/1999/xlink" width="16px" height="16px" viewBox="0 0 16 16" version="1.1">
<g id="surface1">
<path style=" stroke:none;fill-rule:nonzero;fill:rgb(0%,0%,0%);fill-opacity:1;" d="M 10.949219 0.738281 L 10.949219 1.480469 L 10.863281 1.496094 C 10.722656 1.527344 10.621094 1.652344 10.558594 1.867188 C 10.546875 1.90625 10.503906 1.984375 10.460938 2.03125 C 10.414062 2.078125 10.359375 2.15625 10.332031 2.203125 C 10.265625 2.316406 10.261719 2.320312 9.742188 2.683594 C 9.492188 2.855469 9.265625 3.023438 9.230469 3.058594 C 9.199219 3.089844 9.105469 3.191406 9.019531 3.277344 C 8.933594 3.367188 8.8125 3.527344 8.746094 3.640625 C 8.617188 3.847656 8.339844 4.394531 8.300781 4.519531 C 8.285156 4.558594 8.253906 4.628906 8.222656 4.667969 C 8.195312 4.710938 8.167969 4.761719 8.15625 4.777344 C 8.144531 4.800781 8.140625 4.800781 8.140625 4.761719 C 8.136719 4.738281 8.164062 4.671875 8.195312 4.617188 C 8.230469 4.5625 8.25 4.507812 8.242188 4.492188 C 8.234375 4.480469 8.238281 4.472656 8.25 4.472656 C 8.261719 4.472656 8.277344 4.449219 8.285156 4.421875 C 8.292969 4.394531 8.3125 4.359375 8.324219 4.347656 C 8.355469 4.304688 8.410156 4.203125 8.410156 4.179688 C 8.410156 4.144531 8.300781 4.21875 8.179688 4.335938 C 8.117188 4.398438 8.074219 4.453125 8.082031 4.460938 C 8.089844 4.46875 8.082031 4.484375 8.070312 4.496094 C 8.050781 4.511719 8.03125 4.550781 8.019531 4.59375 C 8.003906 4.648438 7.972656 4.683594 7.875 4.753906 C 7.753906 4.839844 7.671875 4.933594 7.695312 4.960938 C 7.699219 4.96875 7.695312 4.972656 7.683594 4.972656 C 7.671875 4.972656 7.652344 4.988281 7.640625 5.011719 C 7.617188 5.042969 7.621094 5.050781 7.65625 5.074219 C 7.683594 5.089844 7.695312 5.109375 7.6875 5.113281 C 7.683594 5.121094 7.6875 5.128906 7.699219 5.128906 C 7.75 5.128906 7.726562 5.207031 7.675781 5.222656 C 7.644531 5.234375 7.597656 5.257812 7.566406 5.277344 C 7.394531 5.382812 6.976562 5.558594 6.757812 5.617188 C 6.628906 5.648438 6.511719 5.671875 6.496094 5.667969 C 6.480469 5.664062 6.472656 5.667969 6.480469 5.675781 C 6.492188 5.691406 6.460938 5.699219 6.414062 5.695312 C 6.402344 5.691406 6.40625 5.703125 6.425781 5.71875 C 6.445312 5.734375 6.445312 5.742188 6.429688 5.734375 C 6.394531 5.71875 6.328125 5.738281 6.34375 5.757812 C 6.351562 5.765625 6.34375 5.785156 6.324219 5.800781 C 6.300781 5.816406 6.285156 5.847656 6.28125 5.871094 C 6.277344 5.894531 6.253906 5.925781 6.226562 5.941406 C 6.199219 5.953125 6.167969 5.988281 6.15625 6.011719 C 6.140625 6.046875 6.128906 6.054688 6.117188 6.03125 C 6.113281 6.015625 6.113281 6.003906 6.125 6.003906 C 6.136719 6.003906 6.125 5.988281 6.097656 5.96875 C 6.070312 5.949219 6.035156 5.933594 6.019531 5.933594 C 5.976562 5.9375 5.882812 6.011719 5.863281 6.054688 C 5.855469 6.078125 5.839844 6.09375 5.828125 6.089844 C 5.816406 6.085938 5.804688 6.097656 5.792969 6.113281 C 5.789062 6.132812 5.769531 6.144531 5.761719 6.144531 C 5.75 6.144531 5.699219 6.171875 5.652344 6.203125 C 5.605469 6.234375 5.550781 6.261719 5.535156 6.265625 C 5.519531 6.265625 5.492188 6.28125 5.46875 6.296875 C 5.453125 6.3125 5.445312 6.3125 5.453125 6.300781 C 5.460938 6.289062 5.441406 6.296875 5.410156 6.316406 C 5.375 6.335938 5.351562 6.355469 5.359375 6.359375 C 5.363281 6.363281 5.335938 6.386719 5.300781 6.414062 C 5.265625 6.441406 5.234375 6.472656 5.234375 6.484375 C 5.234375 6.496094 5.226562 6.503906 5.210938 6.496094 C 5.199219 6.492188 5.183594 6.503906 5.175781 6.527344 C 5.167969 6.550781 5.148438 6.574219 5.128906 6.585938 C 5.109375 6.59375 5.097656 6.613281 5.097656 6.625 C 5.097656 6.648438 5.191406 6.601562 5.359375 6.492188 C 5.53125 6.382812 5.5 6.421875 5.3125 6.546875 C 5.125 6.675781 5.105469 6.695312 5.042969 6.808594 C 5.007812 6.878906 4.96875 6.949219 4.957031 6.964844 C 4.945312 6.984375 4.933594 7.027344 4.929688 7.058594 C 4.921875 7.09375 4.894531 7.171875 4.867188 7.230469 C 4.839844 7.292969 4.8125 7.355469 4.808594 7.367188 C 4.800781 7.382812 4.785156 7.394531 4.777344 7.394531 C 4.761719 7.394531 4.800781 7.261719 4.855469 7.144531 L 4.875 7.105469 L 4.824219 7.140625 C 4.800781 7.160156 4.777344 7.183594 4.777344 7.191406 C 4.777344 7.21875 4.714844 7.289062 4.703125 7.269531 C 4.699219 7.261719 4.675781 7.253906 4.652344 7.257812 C 4.609375 7.261719 4.609375 7.265625 4.648438 7.289062 C 4.6875 7.316406 4.6875 7.316406 4.640625 7.316406 C 4.613281 7.316406 4.59375 7.324219 4.59375 7.335938 C 4.59375 7.34375 4.582031 7.347656 4.570312 7.339844 C 4.558594 7.335938 4.546875 7.339844 4.546875 7.347656 C 4.546875 7.355469 4.566406 7.367188 4.589844 7.371094 C 4.613281 7.375 4.601562 7.378906 4.570312 7.375 C 4.539062 7.375 4.515625 7.378906 4.519531 7.390625 C 4.523438 7.402344 4.507812 7.410156 4.492188 7.410156 C 4.46875 7.410156 4.484375 7.378906 4.550781 7.296875 C 4.601562 7.238281 4.667969 7.144531 4.699219 7.097656 C 4.730469 7.050781 4.785156 6.972656 4.824219 6.921875 C 4.914062 6.804688 4.875 6.820312 4.773438 6.941406 C 4.542969 7.222656 4.386719 7.429688 4.398438 7.441406 C 4.40625 7.445312 4.398438 7.457031 4.382812 7.46875 C 4.363281 7.488281 4.367188 7.488281 4.386719 7.488281 C 4.40625 7.484375 4.421875 7.492188 4.425781 7.5 C 4.433594 7.511719 4.421875 7.523438 4.40625 7.523438 C 4.367188 7.523438 4.367188 7.53125 4.3125 7.796875 C 4.292969 7.890625 4.277344 7.96875 4.273438 7.96875 C 4.269531 7.988281 4.140625 8.050781 4.117188 8.046875 C 4.101562 8.042969 4.085938 8.046875 4.082031 8.058594 C 4.078125 8.066406 4.0625 8.109375 4.046875 8.152344 C 4.03125 8.195312 3.988281 8.253906 3.949219 8.289062 C 3.90625 8.320312 3.847656 8.378906 3.808594 8.414062 C 3.777344 8.453125 3.726562 8.503906 3.699219 8.527344 C 3.65625 8.566406 3.652344 8.574219 3.675781 8.660156 C 3.691406 8.707031 3.714844 8.757812 3.734375 8.765625 C 3.757812 8.777344 3.761719 8.789062 3.742188 8.808594 C 3.714844 8.84375 3.738281 8.90625 3.796875 8.976562 C 3.835938 9.019531 3.847656 9.023438 3.867188 9.003906 C 3.882812 8.988281 3.886719 9.007812 3.875 9.0625 C 3.84375 9.246094 3.816406 9.945312 3.835938 10.023438 C 3.851562 10.070312 3.863281 10.210938 3.875 10.335938 C 3.882812 10.460938 3.902344 10.605469 3.921875 10.660156 C 3.949219 10.730469 3.953125 10.789062 3.941406 10.851562 C 3.929688 10.921875 3.9375 10.953125 3.964844 10.992188 C 3.988281 11.023438 3.996094 11.050781 3.980469 11.066406 C 3.957031 11.09375 3.96875 11.144531 4.019531 11.191406 C 4.046875 11.222656 4.046875 11.230469 4.015625 11.265625 C 3.976562 11.304688 4 11.335938 4.074219 11.335938 C 4.101562 11.335938 4.125 11.359375 4.152344 11.425781 C 4.171875 11.476562 4.207031 11.53125 4.226562 11.546875 C 4.3125 11.617188 4.34375 11.714844 4.34375 11.914062 C 4.34375 12.019531 4.363281 12.25 4.390625 12.429688 C 4.445312 12.785156 4.4375 12.84375 4.351562 13.152344 C 4.25 13.488281 4.230469 13.546875 4.195312 13.628906 C 4.175781 13.671875 4.160156 13.761719 4.160156 13.832031 C 4.15625 13.898438 4.140625 14.007812 4.125 14.074219 C 4.082031 14.207031 4.078125 14.269531 4.109375 14.371094 C 4.125 14.429688 4.136719 14.4375 4.171875 14.4375 C 4.195312 14.433594 4.257812 14.429688 4.300781 14.433594 C 4.375 14.433594 4.390625 14.425781 4.421875 14.386719 C 4.441406 14.359375 4.457031 14.332031 4.457031 14.324219 C 4.457031 14.3125 4.480469 14.28125 4.507812 14.257812 C 4.539062 14.226562 4.636719 14.121094 4.722656 14.015625 C 4.878906 13.824219 4.976562 13.738281 5.152344 13.640625 C 5.382812 13.507812 5.429688 13.386719 5.289062 13.273438 C 5.152344 13.160156 5.121094 13.105469 5.117188 12.941406 C 5.113281 12.855469 5.09375 12.832031 5.066406 12.878906 C 5.058594 12.890625 5.042969 12.902344 5.03125 12.902344 C 5.003906 12.902344 5.019531 12.863281 5.09375 12.730469 C 5.164062 12.601562 5.242188 12.410156 5.28125 12.265625 C 5.292969 12.222656 5.320312 12.15625 5.347656 12.121094 C 5.386719 12.070312 5.398438 12.03125 5.390625 11.960938 C 5.378906 11.792969 5.296875 11.539062 5.25 11.539062 C 5.234375 11.539062 5.253906 11.527344 5.292969 11.507812 C 5.332031 11.492188 5.367188 11.476562 5.375 11.476562 C 5.394531 11.476562 5.484375 11.765625 5.484375 11.832031 C 5.488281 11.890625 5.488281 11.890625 5.519531 11.851562 C 5.578125 11.785156 5.625 11.648438 5.628906 11.550781 C 5.632812 11.378906 5.617188 11.253906 5.597656 11.277344 C 5.582031 11.292969 5.578125 11.289062 5.578125 11.269531 C 5.578125 11.246094 5.570312 11.242188 5.546875 11.253906 C 5.523438 11.269531 5.519531 11.265625 5.519531 11.242188 C 5.519531 11.222656 5.527344 11.214844 5.558594 11.21875 C 5.585938 11.226562 5.605469 11.214844 5.625 11.191406 C 5.640625 11.171875 5.664062 11.152344 5.675781 11.144531 C 5.695312 11.136719 5.6875 11.132812 5.664062 11.140625 C 5.621094 11.148438 5.605469 11.125 5.644531 11.109375 C 5.660156 11.105469 5.667969 11.089844 5.667969 11.074219 C 5.667969 11.054688 5.660156 11.054688 5.621094 11.082031 C 5.570312 11.109375 5.570312 11.109375 5.601562 11.074219 C 5.625 11.039062 5.621094 11.035156 5.59375 11.042969 C 5.566406 11.050781 5.5625 11.046875 5.570312 11.027344 C 5.582031 11.011719 5.574219 11.007812 5.527344 11.015625 C 5.480469 11.023438 5.484375 11.019531 5.550781 10.980469 C 5.640625 10.929688 5.648438 10.855469 5.5625 10.863281 C 5.523438 10.867188 5.515625 10.859375 5.523438 10.835938 C 5.539062 10.800781 5.511719 10.796875 5.429688 10.824219 C 5.367188 10.84375 5.347656 10.878906 5.40625 10.863281 C 5.425781 10.855469 5.433594 10.859375 5.429688 10.867188 C 5.40625 10.890625 5.347656 10.886719 5.347656 10.863281 C 5.347656 10.847656 5.378906 10.828125 5.414062 10.8125 C 5.484375 10.785156 5.605469 10.667969 5.585938 10.644531 C 5.578125 10.640625 5.554688 10.640625 5.527344 10.648438 C 5.4375 10.683594 5.414062 10.621094 5.472656 10.519531 C 5.511719 10.453125 5.519531 10.429688 5.492188 10.429688 C 5.480469 10.429688 5.457031 10.46875 5.441406 10.515625 C 5.429688 10.558594 5.394531 10.625 5.371094 10.660156 C 5.34375 10.691406 5.316406 10.734375 5.308594 10.75 C 5.289062 10.796875 5.296875 11.027344 5.320312 11.046875 C 5.332031 11.054688 5.351562 11.097656 5.359375 11.140625 C 5.371094 11.183594 5.390625 11.230469 5.410156 11.246094 C 5.429688 11.261719 5.441406 11.285156 5.433594 11.304688 C 5.425781 11.324219 5.429688 11.339844 5.445312 11.347656 C 5.472656 11.355469 5.445312 11.433594 5.410156 11.449219 C 5.398438 11.457031 5.371094 11.449219 5.351562 11.441406 C 5.332031 11.429688 5.3125 11.425781 5.308594 11.425781 C 5.289062 11.4375 5.210938 11.429688 5.210938 11.414062 C 5.210938 11.40625 5.226562 11.398438 5.246094 11.398438 C 5.265625 11.398438 5.304688 11.386719 5.332031 11.367188 C 5.359375 11.351562 5.371094 11.335938 5.359375 11.335938 C 5.347656 11.335938 5.359375 11.324219 5.386719 11.3125 C 5.425781 11.292969 5.425781 11.292969 5.390625 11.289062 C 5.371094 11.289062 5.34375 11.296875 5.335938 11.304688 C 5.332031 11.3125 5.3125 11.320312 5.300781 11.320312 C 5.285156 11.320312 5.28125 11.316406 5.289062 11.308594 C 5.296875 11.300781 5.28125 11.296875 5.257812 11.300781 C 5.195312 11.3125 5.199219 11.292969 5.277344 11.238281 C 5.316406 11.207031 5.320312 11.199219 5.285156 11.21875 C 5.21875 11.253906 5.214844 11.222656 5.28125 11.167969 C 5.304688 11.148438 5.324219 11.113281 5.324219 11.097656 C 5.324219 11.070312 5.316406 11.074219 5.292969 11.113281 C 5.273438 11.144531 5.242188 11.167969 5.226562 11.175781 C 5.183594 11.183594 5.128906 11.164062 5.160156 11.152344 C 5.1875 11.136719 5.257812 11.066406 5.257812 11.050781 C 5.257812 11.042969 5.238281 11.046875 5.21875 11.058594 C 5.140625 11.105469 5.113281 11.109375 5.144531 11.074219 C 5.167969 11.046875 5.167969 11.035156 5.144531 11.011719 C 5.125 10.996094 5.121094 10.988281 5.128906 10.996094 C 5.152344 11.007812 5.253906 10.90625 5.257812 10.871094 C 5.257812 10.863281 5.21875 10.878906 5.175781 10.910156 L 5.09375 10.96875 L 5.152344 10.890625 C 5.203125 10.820312 5.238281 10.765625 5.238281 10.742188 C 5.238281 10.738281 5.246094 10.722656 5.257812 10.707031 C 5.285156 10.675781 5.257812 10.671875 5.214844 10.699219 C 5.203125 10.707031 5.183594 10.714844 5.175781 10.707031 C 5.167969 10.703125 5.210938 10.675781 5.265625 10.652344 C 5.355469 10.609375 5.382812 10.582031 5.425781 10.488281 C 5.445312 10.441406 5.417969 10.457031 5.277344 10.558594 C 5.175781 10.632812 5.144531 10.664062 5.152344 10.691406 C 5.160156 10.714844 5.148438 10.730469 5.113281 10.746094 C 5.070312 10.761719 5.066406 10.761719 5.089844 10.742188 C 5.105469 10.730469 5.113281 10.703125 5.105469 10.6875 C 5.097656 10.664062 5.128906 10.632812 5.234375 10.5625 C 5.371094 10.46875 5.496094 10.335938 5.480469 10.300781 C 5.472656 10.289062 5.480469 10.265625 5.492188 10.25 C 5.511719 10.222656 5.511719 10.21875 5.476562 10.242188 C 5.457031 10.253906 5.441406 10.273438 5.449219 10.285156 C 5.457031 10.296875 5.433594 10.316406 5.398438 10.332031 C 5.363281 10.34375 5.296875 10.378906 5.246094 10.402344 C 5.175781 10.4375 5.183594 10.429688 5.28125 10.371094 C 5.347656 10.328125 5.398438 10.289062 5.386719 10.289062 C 5.375 10.289062 5.390625 10.265625 5.425781 10.234375 C 5.492188 10.179688 5.503906 10.125 5.457031 10.109375 C 5.441406 10.101562 5.441406 10.101562 5.449219 10.113281 C 5.457031 10.125 5.441406 10.140625 5.40625 10.148438 C 5.375 10.15625 5.304688 10.195312 5.246094 10.234375 C 5.1875 10.273438 5.148438 10.292969 5.164062 10.277344 C 5.175781 10.261719 5.230469 10.21875 5.292969 10.179688 C 5.484375 10.050781 5.589844 9.921875 5.53125 9.875 C 5.507812 9.855469 5.523438 9.839844 5.59375 9.777344 C 5.6875 9.703125 5.75 9.632812 5.726562 9.632812 C 5.714844 9.632812 5.691406 9.640625 5.664062 9.648438 C 5.625 9.664062 5.722656 9.578125 5.933594 9.410156 C 5.980469 9.375 5.980469 9.367188 5.949219 9.367188 C 5.898438 9.367188 5.925781 9.351562 5.988281 9.34375 C 6.042969 9.335938 6.101562 9.308594 6.101562 9.289062 C 6.101562 9.285156 6.058594 9.28125 6.007812 9.285156 L 5.910156 9.285156 L 5.992188 9.273438 C 6.078125 9.261719 6.175781 9.21875 6.25 9.164062 C 6.300781 9.125 6.28125 9.101562 6.222656 9.136719 C 6.199219 9.148438 6.15625 9.164062 6.125 9.167969 C 6.078125 9.179688 6.074219 9.175781 6.109375 9.164062 C 6.128906 9.152344 6.148438 9.132812 6.148438 9.121094 C 6.148438 9.105469 6.167969 9.078125 6.1875 9.0625 C 6.222656 9.027344 6.222656 9.035156 6.179688 9.113281 C 6.164062 9.136719 6.167969 9.136719 6.199219 9.117188 C 6.222656 9.105469 6.238281 9.085938 6.238281 9.070312 C 6.238281 9.058594 6.261719 9.019531 6.285156 8.988281 C 6.3125 8.953125 6.328125 8.921875 6.320312 8.914062 C 6.308594 8.902344 6.175781 8.914062 6.128906 8.933594 C 6.097656 8.949219 6.097656 8.929688 6.121094 8.902344 C 6.144531 8.875 6.355469 8.804688 6.355469 8.824219 C 6.355469 8.832031 6.359375 8.835938 6.371094 8.828125 C 6.382812 8.824219 6.371094 8.808594 6.34375 8.796875 C 6.3125 8.777344 6.289062 8.777344 6.25 8.792969 C 6.164062 8.820312 6.128906 8.785156 6.191406 8.730469 C 6.21875 8.710938 6.25 8.664062 6.261719 8.628906 C 6.289062 8.5625 6.277344 8.359375 6.238281 8.300781 C 6.21875 8.265625 6.21875 8.269531 6.230469 8.3125 C 6.242188 8.363281 6.242188 8.363281 6.152344 8.359375 C 6.097656 8.359375 6.058594 8.355469 6.0625 8.351562 C 6.0625 8.34375 6.050781 8.324219 6.035156 8.304688 C 6.003906 8.265625 6.007812 8.265625 6.046875 8.289062 C 6.070312 8.300781 6.082031 8.304688 6.074219 8.292969 C 6.0625 8.28125 6.074219 8.265625 6.101562 8.257812 C 6.140625 8.242188 6.144531 8.246094 6.152344 8.277344 L 6.160156 8.3125 L 6.191406 8.273438 C 6.210938 8.25 6.210938 8.234375 6.195312 8.21875 C 6.179688 8.207031 6.179688 8.179688 6.191406 8.148438 C 6.207031 8.109375 6.207031 8.097656 6.167969 8.074219 C 6.128906 8.050781 6.125 8.050781 6.125 8.097656 C 6.125 8.125 6.113281 8.164062 6.097656 8.1875 C 6.085938 8.210938 6.070312 8.238281 6.070312 8.242188 C 6.070312 8.25 6.0625 8.257812 6.050781 8.257812 C 6.042969 8.257812 6.015625 8.257812 5.992188 8.257812 C 5.957031 8.257812 5.949219 8.242188 5.949219 8.171875 C 5.949219 8.121094 5.957031 8.078125 5.96875 8.074219 C 5.980469 8.070312 5.988281 8.054688 5.988281 8.042969 C 5.988281 8.03125 5.980469 8.023438 5.964844 8.03125 C 5.929688 8.046875 5.9375 8.023438 6 7.960938 C 6.058594 7.898438 6.058594 7.898438 6.007812 7.898438 C 5.964844 7.898438 5.964844 7.894531 6.023438 7.863281 C 6.058594 7.84375 6.109375 7.8125 6.136719 7.796875 C 6.160156 7.777344 6.207031 7.753906 6.238281 7.738281 L 6.296875 7.710938 L 6.238281 7.695312 C 6.183594 7.679688 6.1875 7.679688 6.265625 7.679688 C 6.3125 7.679688 6.378906 7.671875 6.414062 7.660156 C 6.476562 7.640625 6.476562 7.640625 6.34375 7.621094 C 6.210938 7.601562 6.21875 7.601562 6.515625 7.605469 C 6.824219 7.609375 7.414062 7.648438 7.519531 7.671875 C 7.671875 7.707031 7.734375 7.773438 7.769531 7.929688 C 7.804688 8.078125 7.871094 8.179688 8.066406 8.363281 C 8.152344 8.445312 8.261719 8.558594 8.304688 8.617188 C 8.398438 8.734375 8.582031 9.035156 8.605469 9.113281 C 8.613281 9.144531 8.65625 9.183594 8.71875 9.222656 C 8.855469 9.300781 9.175781 9.554688 9.160156 9.566406 C 9.105469 9.601562 9.726562 10.046875 9.933594 10.117188 C 10.058594 10.164062 10.421875 10.398438 10.421875 10.4375 C 10.421875 10.453125 10.457031 10.492188 10.5 10.53125 C 10.566406 10.589844 10.578125 10.621094 10.59375 10.714844 C 10.601562 10.777344 10.609375 10.847656 10.601562 10.875 C 10.585938 11.019531 10.59375 11.03125 10.667969 11.054688 C 10.722656 11.070312 10.746094 11.089844 10.765625 11.148438 C 10.78125 11.1875 10.796875 11.230469 10.804688 11.246094 C 10.8125 11.265625 10.835938 11.273438 10.882812 11.273438 L 10.949219 11.273438 L 10.949219 11.824219 C 10.949219 12.128906 10.953125 12.40625 10.957031 12.4375 C 10.960938 12.472656 10.964844 13.289062 10.96875 14.25 L 10.972656 15.996094 L 11.441406 15.996094 L 11.441406 11.003906 L 11.507812 11 C 11.566406 11 11.578125 10.996094 11.585938 10.949219 C 11.589844 10.910156 11.578125 10.890625 11.519531 10.855469 C 11.457031 10.816406 11.453125 10.808594 11.484375 10.789062 C 11.527344 10.765625 11.527344 10.730469 11.484375 10.714844 C 11.464844 10.710938 11.453125 10.695312 11.457031 10.683594 C 11.457031 10.667969 11.453125 10.648438 11.441406 10.636719 C 11.433594 10.625 11.425781 8.6875 11.425781 6.328125 L 11.429688 2.039062 L 11.492188 1.949219 C 11.527344 1.898438 11.566406 1.859375 11.578125 1.863281 C 11.585938 1.867188 11.605469 1.855469 11.621094 1.84375 C 11.640625 1.820312 11.640625 1.804688 11.617188 1.78125 C 11.601562 1.765625 11.597656 1.75 11.609375 1.75 C 11.621094 1.75 11.640625 1.730469 11.652344 1.707031 C 11.671875 1.671875 11.667969 1.652344 11.644531 1.628906 C 11.613281 1.597656 11.613281 1.59375 11.644531 1.570312 C 11.6875 1.539062 11.691406 1.480469 11.644531 1.453125 C 11.628906 1.441406 11.613281 1.417969 11.613281 1.394531 C 11.613281 1.347656 11.527344 1.265625 11.484375 1.265625 C 11.457031 1.265625 11.453125 1.171875 11.453125 0.632812 L 11.453125 0 L 10.949219 0 Z M 10.929688 3.953125 C 10.925781 4.824219 10.914062 5.550781 10.90625 5.5625 C 10.890625 5.582031 10.871094 5.566406 10.832031 5.511719 C 10.800781 5.472656 10.753906 5.421875 10.722656 5.402344 C 10.695312 5.386719 10.660156 5.347656 10.640625 5.320312 C 10.605469 5.265625 10.605469 5.265625 10.492188 5.277344 C 10.363281 5.289062 10.347656 5.28125 10.441406 5.246094 C 10.476562 5.234375 10.492188 5.222656 10.480469 5.222656 C 10.46875 5.222656 10.414062 5.238281 10.363281 5.261719 C 10.277344 5.292969 10.261719 5.292969 10.191406 5.273438 C 10.148438 5.261719 10.078125 5.253906 10.03125 5.257812 C 9.984375 5.261719 9.949219 5.257812 9.957031 5.253906 C 9.960938 5.246094 9.9375 5.234375 9.902344 5.222656 C 9.851562 5.210938 9.816406 5.210938 9.738281 5.230469 C 9.59375 5.265625 9.5625 5.261719 9.457031 5.191406 C 9.324219 5.101562 9.242188 5.074219 9.175781 5.09375 C 9.144531 5.105469 9.121094 5.128906 9.117188 5.15625 C 9.109375 5.191406 9.097656 5.199219 9.042969 5.195312 C 9.003906 5.195312 8.960938 5.199219 8.945312 5.207031 C 8.929688 5.21875 8.902344 5.222656 8.882812 5.21875 C 8.863281 5.214844 8.832031 5.21875 8.808594 5.230469 C 8.746094 5.261719 8.675781 5.261719 8.695312 5.226562 C 8.714844 5.199219 8.730469 5.160156 8.773438 5.066406 C 8.789062 5.035156 8.800781 4.988281 8.800781 4.964844 C 8.800781 4.945312 8.816406 4.898438 8.835938 4.867188 C 8.878906 4.792969 8.917969 4.625 8.890625 4.605469 C 8.878906 4.597656 8.851562 4.605469 8.824219 4.621094 C 8.796875 4.636719 8.769531 4.644531 8.761719 4.640625 C 8.746094 4.628906 8.816406 4.515625 8.851562 4.496094 C 8.914062 4.460938 9.109375 4.273438 9.199219 4.160156 C 9.261719 4.082031 9.375 3.984375 9.546875 3.859375 C 9.746094 3.71875 9.820312 3.648438 9.878906 3.566406 C 9.921875 3.507812 9.957031 3.460938 9.96875 3.464844 C 9.996094 3.476562 10.121094 3.324219 10.367188 2.980469 C 10.503906 2.789062 10.644531 2.605469 10.679688 2.566406 C 10.765625 2.480469 10.90625 2.359375 10.925781 2.359375 C 10.933594 2.359375 10.933594 3.078125 10.929688 3.953125 Z M 8.078125 4.738281 C 8.070312 4.765625 8.023438 4.847656 7.976562 4.917969 C 7.925781 4.992188 7.882812 5.074219 7.875 5.105469 C 7.867188 5.171875 7.796875 5.234375 7.769531 5.203125 C 7.742188 5.175781 7.765625 5.121094 7.898438 4.941406 C 7.964844 4.851562 8.03125 4.757812 8.042969 4.734375 C 8.074219 4.675781 8.097656 4.679688 8.078125 4.738281 Z M 10.976562 5.976562 C 10.984375 6.390625 10.980469 6.695312 10.96875 6.703125 C 10.957031 6.707031 10.949219 6.402344 10.949219 5.980469 C 10.949219 5.578125 10.953125 5.253906 10.957031 5.253906 C 10.960938 5.257812 10.972656 5.585938 10.976562 5.976562 Z M 8.503906 5.441406 C 8.503906 5.535156 8.570312 5.710938 8.621094 5.742188 C 8.664062 5.773438 8.667969 5.804688 8.628906 5.800781 C 8.621094 5.800781 8.601562 5.808594 8.59375 5.820312 C 8.558594 5.851562 8.527344 5.804688 8.527344 5.71875 C 8.527344 5.679688 8.515625 5.628906 8.503906 5.605469 C 8.472656 5.554688 8.460938 5.363281 8.488281 5.375 C 8.496094 5.378906 8.503906 5.410156 8.503906 5.441406 Z M 10.925781 5.808594 C 10.925781 5.820312 10.917969 5.835938 10.902344 5.839844 C 10.890625 5.847656 10.878906 5.832031 10.878906 5.808594 C 10.878906 5.785156 10.890625 5.773438 10.902344 5.777344 C 10.917969 5.78125 10.925781 5.796875 10.925781 5.808594 Z M 10.9375 7.507812 C 10.953125 9.269531 10.949219 10.3125 10.917969 10.328125 C 10.894531 10.347656 10.585938 10.128906 10.386719 9.953125 C 10.324219 9.894531 10.195312 9.789062 10.171875 9.773438 C 10.164062 9.769531 10.15625 9.753906 10.152344 9.742188 C 10.148438 9.730469 10.109375 9.6875 10.0625 9.652344 C 10.015625 9.613281 9.953125 9.5625 9.921875 9.535156 L 9.863281 9.484375 L 10.019531 9.578125 L 9.945312 9.511719 C 9.902344 9.472656 9.859375 9.449219 9.847656 9.453125 C 9.832031 9.460938 9.828125 9.457031 9.835938 9.449219 C 9.855469 9.429688 9.414062 9.074219 9.320312 9.03125 C 9.296875 9.019531 9.28125 9.003906 9.292969 8.992188 C 9.300781 8.980469 9.292969 8.976562 9.277344 8.980469 C 9.257812 8.980469 9.246094 8.972656 9.253906 8.953125 C 9.257812 8.933594 9.25 8.929688 9.230469 8.9375 C 9.207031 8.949219 9.207031 8.945312 9.222656 8.925781 C 9.238281 8.914062 9.246094 8.832031 9.242188 8.734375 C 9.238281 8.523438 9.183594 8.390625 8.921875 7.964844 C 8.863281 7.863281 8.851562 7.828125 8.867188 7.796875 C 8.894531 7.75 8.90625 7.441406 8.886719 7.34375 C 8.867188 7.253906 8.796875 7.144531 8.714844 7.070312 C 8.660156 7.019531 8.652344 7.003906 8.65625 6.875 C 8.660156 6.753906 8.667969 6.730469 8.71875 6.683594 C 8.789062 6.621094 8.988281 6.535156 9.058594 6.535156 C 9.238281 6.539062 9.421875 6.570312 9.585938 6.628906 C 9.6875 6.664062 9.808594 6.695312 9.863281 6.703125 C 9.996094 6.714844 10.246094 6.675781 10.359375 6.621094 C 10.609375 6.503906 10.863281 6.277344 10.867188 6.167969 C 10.871094 6.140625 10.875 6.0625 10.875 5.992188 C 10.878906 5.921875 10.890625 5.863281 10.902344 5.863281 C 10.910156 5.863281 10.929688 6.582031 10.9375 7.507812 Z M 8.984375 6.394531 C 8.984375 6.402344 8.960938 6.40625 8.9375 6.398438 C 8.910156 6.394531 8.890625 6.390625 8.890625 6.386719 C 8.890625 6.382812 8.910156 6.378906 8.9375 6.378906 C 8.960938 6.378906 8.984375 6.386719 8.984375 6.394531 Z M 8.566406 7.035156 C 8.613281 7.085938 8.589844 7.074219 8.5 7.011719 C 8.441406 6.964844 8.4375 6.957031 8.476562 6.976562 C 8.507812 6.988281 8.546875 7.015625 8.566406 7.035156 Z M 10.988281 7.414062 C 10.980469 7.425781 10.976562 7.417969 10.976562 7.394531 C 10.976562 7.375 10.980469 7.367188 10.988281 7.375 C 10.992188 7.386719 10.992188 7.40625 10.988281 7.414062 Z M 4.691406 7.472656 C 4.6875 7.492188 4.671875 7.507812 4.660156 7.507812 C 4.636719 7.507812 4.636719 7.5 4.652344 7.46875 C 4.675781 7.433594 4.707031 7.4375 4.691406 7.472656 Z M 4.058594 8.257812 C 4.046875 8.273438 4.035156 8.285156 4.03125 8.28125 C 4.023438 8.277344 4.023438 8.257812 4.035156 8.242188 C 4.042969 8.222656 4.054688 8.210938 4.0625 8.214844 C 4.070312 8.21875 4.066406 8.238281 4.058594 8.257812 Z M 6.25 8.820312 C 6.246094 8.828125 6.21875 8.835938 6.199219 8.832031 C 6.167969 8.832031 6.167969 8.832031 6.207031 8.820312 C 6.265625 8.800781 6.265625 8.800781 6.25 8.820312 Z M 6.0625 8.917969 C 6.046875 8.925781 6.035156 8.929688 6.035156 8.917969 C 6.035156 8.910156 6.042969 8.898438 6.050781 8.894531 C 6.058594 8.886719 6.070312 8.886719 6.078125 8.890625 C 6.082031 8.894531 6.074219 8.90625 6.0625 8.917969 Z M 9.488281 9.175781 C 9.519531 9.199219 9.515625 9.199219 9.480469 9.179688 C 9.441406 9.160156 9.429688 9.148438 9.449219 9.148438 C 9.453125 9.148438 9.472656 9.160156 9.488281 9.175781 Z M 9.472656 9.765625 C 9.480469 9.761719 9.480469 9.761719 9.476562 9.765625 C 9.472656 9.773438 9.496094 9.796875 9.535156 9.824219 C 9.570312 9.851562 9.601562 9.878906 9.601562 9.882812 C 9.601562 9.894531 9.324219 9.703125 9.234375 9.625 C 9.203125 9.597656 9.242188 9.621094 9.320312 9.671875 C 9.398438 9.726562 9.464844 9.765625 9.472656 9.765625 Z M 9.679688 9.929688 C 9.703125 9.945312 9.714844 9.960938 9.710938 9.960938 C 9.703125 9.960938 9.679688 9.945312 9.65625 9.929688 C 9.632812 9.914062 9.621094 9.898438 9.628906 9.898438 C 9.632812 9.898438 9.65625 9.914062 9.679688 9.929688 Z M 9.921875 10.082031 C 9.953125 10.105469 9.949219 10.109375 9.914062 10.085938 C 9.875 10.066406 9.863281 10.054688 9.882812 10.054688 C 9.886719 10.054688 9.90625 10.066406 9.921875 10.082031 Z M 9.921875 10.082031 "/>
<path style=" stroke:none;fill-rule:nonzero;fill:rgb(0%,0%,0%);fill-opacity:1;" d="M 7.605469 5.105469 C 7.59375 5.117188 7.597656 5.128906 7.605469 5.136719 C 7.617188 5.140625 7.628906 5.128906 7.628906 5.113281 C 7.632812 5.074219 7.621094 5.074219 7.605469 5.105469 Z M 7.605469 5.105469 "/>
<path style=" stroke:none;fill-rule:nonzero;fill:rgb(0%,0%,0%);fill-opacity:1;" d="M 7.445312 5.15625 C 7.414062 5.179688 7.414062 5.191406 7.433594 5.207031 C 7.457031 5.226562 7.457031 5.226562 7.425781 5.210938 C 7.398438 5.195312 7.378906 5.199219 7.339844 5.230469 C 7.308594 5.253906 7.292969 5.277344 7.304688 5.285156 C 7.316406 5.300781 7.3125 5.300781 7.292969 5.292969 C 7.269531 5.285156 7.265625 5.289062 7.273438 5.3125 C 7.28125 5.332031 7.269531 5.359375 7.242188 5.378906 C 7.175781 5.425781 7.234375 5.417969 7.355469 5.363281 C 7.464844 5.3125 7.582031 5.238281 7.550781 5.238281 C 7.542969 5.238281 7.5625 5.222656 7.589844 5.207031 L 7.644531 5.175781 L 7.59375 5.164062 C 7.566406 5.160156 7.550781 5.152344 7.554688 5.144531 C 7.574219 5.121094 7.535156 5.125 7.5 5.148438 C 7.472656 5.164062 7.46875 5.164062 7.484375 5.148438 C 7.507812 5.121094 7.488281 5.125 7.445312 5.15625 Z M 7.445312 5.15625 "/>
<path style=" stroke:none;fill-rule:nonzero;fill:rgb(0%,0%,0%);fill-opacity:1;" d="M 6.855469 5.550781 C 6.839844 5.558594 6.835938 5.566406 6.847656 5.566406 C 6.859375 5.566406 6.882812 5.558594 6.902344 5.550781 C 6.921875 5.542969 6.929688 5.535156 6.914062 5.535156 C 6.902344 5.535156 6.875 5.542969 6.855469 5.550781 Z M 6.855469 5.550781 "/>
<path style=" stroke:none;fill-rule:nonzero;fill:rgb(0%,0%,0%);fill-opacity:1;" d="M 5.035156 6.664062 C 4.996094 6.699219 4.890625 6.816406 4.902344 6.816406 C 4.917969 6.816406 5.078125 6.660156 5.066406 6.652344 C 5.0625 6.648438 5.046875 6.652344 5.035156 6.664062 Z M 5.035156 6.664062 "/>
<path style=" stroke:none;fill-rule:nonzero;fill:rgb(0%,0%,0%);fill-opacity:1;" d="M 6.285156 8.335938 C 6.285156 8.34375 6.296875 8.351562 6.3125 8.351562 C 6.324219 8.351562 6.328125 8.34375 6.320312 8.335938 C 6.3125 8.324219 6.300781 8.320312 6.292969 8.320312 C 6.289062 8.320312 6.285156 8.324219 6.285156 8.335938 Z M 6.285156 8.335938 "/>
<path style=" stroke:none;fill-rule:nonzero;fill:rgb(0%,0%,0%);fill-opacity:1;" d="M 6.324219 8.4375 C 6.332031 8.46875 6.339844 8.503906 6.34375 8.503906 C 6.363281 8.519531 6.351562 8.433594 6.332031 8.40625 C 6.316406 8.382812 6.3125 8.390625 6.324219 8.4375 Z M 6.324219 8.4375 "/>
<path style=" stroke:none;fill-rule:nonzero;fill:rgb(0%,0%,0%);fill-opacity:1;" d="M 6.355469 8.546875 C 6.355469 8.566406 6.363281 8.570312 6.371094 8.558594 C 6.378906 8.546875 6.375 8.53125 6.367188 8.527344 C 6.359375 8.519531 6.355469 8.53125 6.355469 8.546875 Z M 6.355469 8.546875 "/>
<path style=" stroke:none;fill-rule:nonzero;fill:rgb(0%,0%,0%);fill-opacity:1;" d="M 5.53125 9.851562 C 5.53125 9.859375 5.542969 9.863281 5.554688 9.859375 C 5.566406 9.855469 5.578125 9.847656 5.578125 9.84375 C 5.578125 9.839844 5.566406 9.835938 5.554688 9.835938 C 5.542969 9.835938 5.53125 9.84375 5.53125 9.851562 Z M 5.53125 9.851562 "/>
<path style=" stroke:none;fill-rule:nonzero;fill:rgb(0%,0%,0%);fill-opacity:1;" d="M 5.375 12.160156 C 5.363281 12.175781 5.347656 12.222656 5.339844 12.265625 C 5.328125 12.339844 5.328125 12.339844 5.351562 12.289062 C 5.414062 12.144531 5.421875 12.101562 5.375 12.160156 Z M 5.375 12.160156 "/>
<path style=" stroke:none;fill-rule:nonzero;fill:rgb(0%,0%,0%);fill-opacity:1;" d="M 5.25 12.523438 C 5.089844 12.917969 5.101562 13.09375 5.300781 13.242188 C 5.402344 13.316406 5.414062 13.320312 5.425781 13.289062 C 5.441406 13.25 5.402344 13.183594 5.320312 13.101562 C 5.21875 13 5.199219 12.917969 5.230469 12.738281 C 5.246094 12.652344 5.277344 12.535156 5.292969 12.480469 C 5.347656 12.324219 5.316406 12.351562 5.25 12.523438 Z M 5.25 12.523438 "/>
</g>
</svg>
