<?xml version="1.0" standalone="no"?>
<!DOCTYPE svg PUBLIC "-//W3C//DTD SVG 20010904//EN"
 "http://www.w3.org/TR/2001/REC-SVG-20010904/DTD/svg10.dtd">
<svg version="1.0" xmlns="http://www.w3.org/2000/svg"
 width="700.000000pt" height="1023.000000pt" viewBox="0 0 700.000000 1023.000000"
 preserveAspectRatio="xMidYMid meet">

<g transform="translate(0.000000,1023.000000) scale(0.100000,-0.100000)"
fill="#000000" stroke="none">
<path d="M4790 9757 l0 -474 -38 -11 c-60 -18 -105 -98 -132 -236 -6 -26 -25
-74 -44 -105 -19 -31 -44 -80 -56 -110 -28 -72 -31 -75 -258 -306 -109 -110
-209 -218 -224 -240 -14 -22 -55 -86 -92 -142 -37 -57 -90 -158 -120 -230 -56
-133 -177 -484 -195 -564 -6 -25 -20 -68 -33 -95 -12 -27 -25 -58 -29 -69 -6
-16 -7 -15 -8 9 -1 16 11 58 25 94 14 35 23 70 20 78 -3 8 -1 14 4 14 4 0 12
14 15 32 4 18 11 39 16 48 15 27 39 92 39 106 0 23 -48 -24 -101 -100 -27 -38
-46 -73 -43 -78 3 -5 0 -15 -6 -24 -7 -8 -17 -35 -21 -61 -7 -36 -21 -58 -64
-104 -53 -55 -89 -115 -79 -131 3 -5 1 -8 -4 -8 -5 0 -14 -11 -20 -24 -9 -20
-7 -27 8 -41 11 -10 17 -22 14 -26 -3 -5 0 -9 5 -9 21 0 12 -49 -11 -61 -13
-6 -34 -22 -48 -34 -75 -68 -258 -180 -353 -216 -56 -22 -108 -37 -115 -34 -7
3 -10 0 -7 -5 6 -9 -9 -15 -29 -11 -5 1 -3 -6 5 -15 8 -10 9 -15 2 -11 -15 9
-45 -2 -37 -15 3 -5 -1 -17 -10 -27 -9 -10 -17 -30 -18 -45 -2 -16 -12 -36
-24 -45 -11 -9 -25 -30 -31 -46 -7 -23 -11 -26 -16 -12 -3 9 -2 17 3 17 5 0
-1 10 -13 23 -12 13 -27 23 -33 22 -19 -1 -61 -50 -68 -78 -4 -15 -11 -25 -16
-22 -5 3 -11 -4 -15 -15 -3 -11 -10 -20 -15 -20 -4 0 -26 -17 -47 -37 -21 -21
-44 -38 -51 -40 -8 -1 -20 -10 -29 -20 -8 -10 -11 -11 -7 -3 4 8 -5 4 -19 -9
-15 -14 -25 -26 -23 -28 2 -2 -9 -18 -25 -36 -16 -17 -29 -37 -29 -45 0 -7 -4
-10 -10 -7 -5 3 -12 -5 -16 -19 -3 -14 -12 -30 -20 -37 -8 -6 -14 -18 -14 -26
0 -15 42 16 115 85 75 71 61 46 -20 -34 -83 -82 -92 -95 -118 -169 -16 -44
-33 -89 -38 -100 -5 -11 -11 -38 -13 -60 -3 -22 -14 -71 -26 -110 -12 -38 -24
-78 -27 -87 -3 -10 -9 -18 -13 -18 -7 0 11 85 35 160 l7 25 -21 -22 c-11 -12
-21 -26 -21 -31 0 -18 -28 -63 -32 -52 -2 7 -12 11 -23 9 -18 -4 -18 -5 -1
-21 17 -17 16 -18 -3 -18 -12 0 -21 -5 -21 -11 0 -5 -5 -7 -10 -4 -6 3 -10 2
-10 -4 0 -5 8 -12 18 -15 10 -3 6 -4 -8 -3 -15 1 -24 -3 -23 -10 2 -7 -4 -13
-12 -13 -10 0 -3 20 26 73 22 39 51 97 65 127 13 30 38 81 55 114 39 74 21 65
-22 -12 -101 -180 -170 -314 -164 -320 2 -3 0 -11 -7 -19 -9 -11 -8 -13 2 -11
7 2 15 -3 17 -9 3 -7 -2 -13 -10 -13 -16 0 -17 -5 -41 -175 -8 -60 -15 -111
-16 -112 -2 -12 -58 -52 -68 -48 -7 2 -14 -1 -16 -8 -2 -6 -9 -34 -15 -61 -7
-28 -26 -65 -44 -87 -18 -20 -44 -57 -60 -80 -15 -24 -37 -56 -49 -71 -19 -25
-20 -31 -9 -85 6 -32 17 -63 25 -68 10 -8 11 -16 4 -28 -12 -22 -3 -63 23
-107 17 -27 23 -31 31 -19 6 10 8 -2 4 -36 -14 -117 -26 -564 -17 -616 6 -30
12 -119 16 -199 3 -80 13 -173 21 -208 11 -43 14 -81 9 -121 -5 -45 -3 -66 10
-90 10 -21 13 -37 7 -48 -11 -18 -5 -49 16 -80 13 -20 12 -26 -1 -47 -18 -26
-7 -46 25 -46 13 0 22 -15 34 -57 9 -32 24 -67 33 -78 37 -43 51 -106 51 -234
0 -68 9 -216 21 -329 23 -228 21 -266 -18 -462 -43 -215 -52 -254 -67 -305 -9
-27 -16 -86 -16 -130 -1 -44 -8 -114 -16 -155 -18 -85 -19 -126 -7 -190 7 -37
12 -44 28 -42 11 2 37 3 57 2 32 -1 39 4 53 29 8 17 15 35 15 41 0 6 11 26 23
43 13 18 55 87 93 155 68 121 112 176 189 240 100 83 120 160 59 233 -60 72
-73 108 -75 212 -2 55 -11 72 -23 42 -3 -8 -10 -15 -15 -15 -11 0 -5 23 28
110 31 82 64 203 81 295 5 28 18 70 30 93 16 33 21 59 19 104 -5 107 -41 268
-62 268 -7 0 2 9 18 20 17 11 33 20 36 20 9 0 49 -184 49 -227 1 -38 1 -38 15
-13 25 44 46 131 47 194 2 109 -4 188 -13 174 -7 -10 -9 -8 -9 6 0 14 -3 16
-13 8 -10 -8 -13 -6 -13 9 0 13 5 17 18 14 11 -4 21 2 29 17 7 13 17 27 23 31
7 6 4 7 -6 3 -19 -6 -25 9 -8 19 6 3 10 13 10 22 0 14 -3 13 -21 -3 -22 -19
-22 -19 -9 5 11 21 10 23 -3 18 -12 -4 -14 -2 -10 10 5 12 1 14 -18 9 -21 -6
-20 -4 9 21 40 34 43 80 5 76 -16 -2 -20 2 -16 17 6 23 -5 25 -42 8 -27 -12
-36 -34 -9 -24 8 3 12 2 9 -4 -9 -15 -35 -12 -35 4 0 8 13 22 29 32 31 18 83
92 75 106 -3 4 -14 3 -25 -2 -40 -22 -51 18 -24 83 17 41 19 57 7 57 -5 0 -14
-24 -21 -54 -6 -29 -21 -71 -32 -92 -11 -22 -23 -48 -26 -59 -9 -30 -5 -176 5
-189 5 -6 13 -33 17 -61 4 -27 14 -58 22 -67 9 -10 13 -26 10 -38 -3 -11 -1
-23 5 -26 12 -7 1 -56 -15 -66 -6 -4 -18 -1 -26 5 -8 7 -16 11 -18 10 -9 -7
-43 -2 -43 7 0 6 7 10 15 10 9 0 25 9 37 20 12 11 18 20 13 20 -5 0 0 7 11 15
17 13 17 14 2 15 -9 0 -20 -4 -23 -10 -3 -5 -11 -10 -16 -10 -6 0 -8 4 -5 9 4
5 -3 7 -14 4 -27 -7 -25 5 8 41 18 20 19 24 5 12 -29 -24 -31 -4 -3 31 11 14
20 35 20 47 -1 16 -4 14 -15 -12 -8 -18 -21 -35 -29 -38 -18 -7 -42 6 -29 15
13 9 43 54 43 65 0 5 -8 2 -17 -6 -34 -29 -46 -32 -32 -10 10 17 10 24 -1 39
-8 10 -10 15 -6 11 10 -8 55 58 56 79 0 7 -16 -4 -36 -25 l-36 -37 26 50 c22
45 37 81 38 95 0 3 4 13 9 23 11 19 -1 23 -19 5 -6 -6 -14 -9 -18 -6 -3 3 15
20 39 37 40 27 52 45 71 104 9 29 -4 20 -65 -45 -45 -47 -58 -67 -55 -85 3
-16 -2 -26 -17 -35 -19 -10 -20 -9 -10 3 7 8 10 24 7 35 -4 15 10 35 56 80 60
58 115 144 107 167 -2 7 0 21 6 32 9 18 9 19 -7 6 -9 -8 -15 -20 -12 -28 3 -7
-7 -20 -22 -30 -15 -9 -45 -30 -67 -46 -30 -23 -27 -17 15 21 30 28 51 51 46
52 -4 0 3 15 18 34 28 37 34 70 14 82 -7 4 -8 3 -4 -4 4 -8 -3 -16 -18 -22
-15 -5 -46 -30 -71 -55 -25 -25 -42 -37 -36 -28 5 10 30 38 56 63 85 83 130
165 105 195 -10 12 -4 23 28 62 41 49 67 93 57 93 -4 0 -15 -5 -27 -11 -17 -9
25 45 118 154 20 22 21 27 7 27 -22 0 -11 10 17 15 23 4 50 23 50 34 0 4 -19
6 -42 4 l-43 -2 36 8 c38 8 81 35 113 70 23 25 14 41 -11 19 -10 -9 -29 -19
-43 -22 -21 -6 -22 -5 -7 4 9 6 17 19 17 28 0 9 8 26 17 37 16 21 16 18 -4
-32 -6 -16 -5 -16 10 -4 9 7 17 21 17 30 0 9 9 33 20 54 11 21 18 42 15 46 -5
9 -63 0 -84 -13 -13 -8 -14 3 -3 21 11 18 102 62 102 50 0 -6 3 -7 7 -3 5 4 0
14 -11 21 -14 11 -24 11 -42 3 -38 -18 -52 3 -25 38 11 14 26 44 31 66 12 43
6 172 -10 209 -9 22 -10 21 -4 -7 5 -32 5 -32 -35 -30 -23 0 -40 3 -39 6 1 3
-5 16 -12 30 -13 24 -12 24 5 10 10 -8 16 -10 12 -3 -5 7 1 16 12 22 17 9 20
7 23 -12 l3 -22 13 23 c10 16 10 27 3 36 -7 8 -7 24 -2 44 7 25 6 34 -10 48
-18 16 -19 16 -19 -14 0 -17 -5 -43 -12 -59 -6 -15 -12 -31 -12 -35 -1 -5 -4
-8 -8 -8 -5 0 -16 0 -26 0 -16 0 -19 8 -19 55 0 31 4 58 8 61 5 3 9 12 9 20 0
8 -4 12 -10 9 -16 -10 -12 3 15 45 25 40 25 40 4 40 -20 0 -20 1 6 22 15 12
37 31 49 42 11 12 32 28 46 38 l25 16 -25 10 c-24 10 -23 11 12 11 20 1 49 6
65 13 27 11 27 12 -32 24 -58 12 -55 13 75 10 136 -3 393 -28 440 -43 66 -21
94 -63 110 -163 14 -96 44 -160 129 -279 38 -53 85 -125 104 -161 41 -75 122
-269 132 -317 4 -21 22 -47 50 -70 59 -52 199 -212 192 -220 -24 -23 248 -307
339 -353 55 -29 214 -180 214 -204 0 -10 15 -37 34 -61 28 -37 34 -56 40 -117
4 -40 7 -86 5 -103 -7 -93 -5 -99 28 -114 25 -11 34 -23 43 -60 7 -25 14 -54
17 -63 3 -12 14 -18 34 -18 l29 0 1 -352 c0 -194 1 -371 3 -393 1 -22 3 -543
4 -1157 l2 -1118 103 0 102 0 0 1597 0 1597 30 1 c26 0 30 4 33 32 3 26 -3 39
-28 61 -27 25 -29 30 -15 42 19 16 19 39 0 47 -9 3 -15 13 -13 22 1 9 -1 22
-6 29 -4 7 -8 1247 -7 2755 l1 2742 28 58 c16 33 32 57 37 55 4 -1 13 5 19 14
8 13 8 23 -2 38 -7 11 -8 20 -3 20 5 0 14 13 19 29 8 22 7 34 -4 50 -14 19
-13 23 0 37 20 20 21 58 1 74 -8 7 -15 24 -15 37 0 30 -36 83 -56 83 -12 0
-14 60 -14 405 l0 405 -110 0 -110 0 0 -473z m-8 -2054 c-2 -559 -7 -1023 -11
-1031 -6 -11 -15 -2 -32 33 -13 26 -34 57 -47 69 -12 11 -29 36 -37 54 -15 34
-15 34 -65 27 -56 -8 -63 -2 -22 19 15 8 23 15 17 15 -5 1 -29 -10 -51 -23
-38 -22 -44 -22 -75 -9 -19 8 -50 13 -71 11 -20 -2 -35 0 -32 3 2 4 -9 12 -24
18 -22 9 -37 8 -71 -4 -63 -22 -77 -19 -123 26 -58 56 -94 74 -124 61 -14 -7
-24 -21 -26 -39 -3 -24 -7 -28 -32 -26 -17 1 -36 -3 -43 -8 -7 -6 -19 -9 -27
-6 -8 3 -22 -1 -33 -8 -27 -21 -57 -19 -48 3 8 18 15 41 34 103 6 19 11 48 11
63 0 14 7 43 15 64 20 47 36 154 24 166 -5 6 -17 2 -29 -9 -11 -10 -23 -16
-26 -13 -7 8 23 81 39 93 27 21 113 143 152 214 27 50 76 112 152 193 87 91
120 134 145 187 18 39 35 68 39 65 13 -7 67 89 175 311 59 121 121 240 137
265 37 54 99 130 107 130 3 0 4 -458 2 -1017z m-1247 -504 c-4 -16 -25 -68
-46 -115 -22 -46 -41 -100 -43 -119 -4 -42 -35 -83 -47 -63 -12 19 -1 52 57
167 29 58 58 118 63 133 13 38 24 36 16 -3z m1268 -792 c3 -263 1 -459 -4
-463 -5 -3 -9 191 -9 462 0 257 2 465 4 463 2 -2 6 -210 9 -462z m-1083 342
c0 -59 30 -171 52 -192 19 -18 21 -40 4 -37 -5 1 -13 -4 -17 -12 -14 -21 -29
10 -29 64 0 26 -5 59 -10 74 -13 33 -19 154 -7 147 4 -2 7 -22 7 -44z m1060
-234 c0 -8 -4 -17 -10 -20 -6 -4 -10 5 -10 20 0 15 4 24 10 20 6 -3 10 -12 10
-20z m5 -1087 c7 -1126 5 -1792 -8 -1804 -11 -11 -145 128 -232 241 -29 37
-84 104 -95 115 -3 3 -6 12 -8 20 -2 8 -20 34 -40 58 -20 24 -48 58 -62 75
l-24 32 34 -30 34 -30 -33 43 c-18 23 -38 39 -43 36 -7 -4 -8 -2 -4 4 7 12
-185 238 -226 266 -11 8 -17 19 -13 25 4 7 1 10 -7 9 -8 -2 -12 4 -10 16 2 13
-1 16 -10 10 -10 -6 -10 -4 -3 7 7 8 10 60 9 124 -2 134 -26 219 -140 492 -26
64 -32 87 -25 106 12 31 18 229 9 290 -9 59 -39 128 -75 176 -25 33 -27 42
-26 124 2 78 5 93 27 122 31 40 119 97 149 96 79 -2 159 -23 231 -60 44 -22
98 -43 122 -47 58 -8 166 18 217 53 108 73 220 218 222 288 1 17 2 67 3 113 1
45 6 82 11 82 5 0 12 -460 16 -1052z m-855 713 c0 -5 -9 -7 -20 -4 -11 3 -20
7 -20 9 0 2 9 4 20 4 11 0 20 -4 20 -9z m-182 -409 c21 -33 10 -27 -29 15 -26
28 -28 33 -10 22 14 -9 31 -25 39 -37z m1059 -244 c-3 -7 -5 -2 -5 12 0 14 2
19 5 13 2 -7 2 -19 0 -25z m-2754 -38 c-3 -11 -9 -20 -14 -20 -11 0 -11 3 -3
24 9 23 23 20 17 -4z m-278 -500 c-4 -12 -9 -19 -12 -17 -3 3 -2 15 2 27 4 12
9 19 12 17 3 -3 2 -15 -2 -27z m960 -360 c-3 -5 -14 -10 -23 -9 -14 0 -13 2 3
9 27 11 27 11 20 0z m-83 -62 c-7 -7 -12 -8 -12 -2 0 6 3 14 7 17 3 4 9 5 12
2 2 -3 -1 -11 -7 -17z m1499 -165 c13 -16 12 -17 -3 -4 -17 13 -22 21 -14 21
2 0 10 -8 17 -17z m-7 -377 c3 2 4 1 2 -2 -2 -3 9 -19 25 -37 16 -17 29 -34
29 -38 0 -7 -120 117 -160 167 -14 16 3 2 37 -32 34 -34 64 -60 67 -58z m91
-106 c10 -11 16 -20 13 -20 -3 0 -13 9 -23 20 -10 11 -16 20 -13 20 3 0 13 -9
23 -20z m106 -97 c13 -16 12 -17 -3 -4 -17 13 -22 21 -14 21 2 0 10 -8 17 -17z"/>
<path d="M3327 6965 c-4 -8 -3 -16 1 -19 4 -3 9 4 9 15 2 23 -3 25 -10 4z"/>
<path d="M3257 6932 c-13 -15 -14 -21 -4 -32 10 -12 9 -12 -4 -2 -13 10 -20 7
-38 -12 -14 -15 -20 -30 -16 -37 6 -8 4 -10 -5 -4 -10 6 -12 3 -8 -13 4 -13
-2 -29 -14 -41 -28 -31 -3 -25 50 10 48 32 99 79 86 79 -4 0 4 9 16 20 l24 21
-22 6 c-12 3 -19 9 -16 14 8 13 -10 11 -25 -3 -11 -10 -13 -10 -7 0 10 18 2
15 -17 -6z"/>
<path d="M3000 6680 c-8 -5 -10 -10 -5 -10 6 0 17 5 25 10 8 5 11 10 5 10 -5
0 -17 -5 -25 -10z"/>
<path d="M2203 5968 c-18 -23 -63 -98 -59 -98 7 0 78 102 73 106 -2 3 -9 -1
-14 -8z"/>
<path d="M2750 4900 c0 -5 5 -10 11 -10 5 0 7 5 4 10 -3 6 -8 10 -11 10 -2 0
-4 -4 -4 -10z"/>
<path d="M2767 4835 c3 -22 7 -42 9 -44 8 -9 2 45 -6 64 -7 14 -8 8 -3 -20z"/>
<path d="M2781 4764 c0 -11 3 -14 6 -6 3 7 2 16 -1 19 -3 4 -6 -2 -5 -13z"/>
<path d="M2420 3929 c0 -5 5 -7 10 -4 6 3 10 8 10 11 0 2 -4 4 -10 4 -5 0 -10
-5 -10 -11z"/>
<path d="M2351 2453 c-5 -10 -12 -40 -15 -68 -5 -46 -5 -47 5 -15 28 94 31
122 10 83z"/>
<path d="M2297 2222 c-70 -254 -65 -365 22 -460 45 -48 49 -51 54 -31 7 25 -9
68 -45 121 -44 64 -53 116 -39 231 7 56 19 131 27 166 23 99 10 82 -19 -27z"/>
</g>
</svg>
